<?xml version="1.0" encoding="UTF-8" standalone="no"?>
<!DOCTYPE svg PUBLIC "-//W3C//DTD SVG 1.1//EN" "http://www.w3.org/Graphics/SVG/1.1/DTD/svg11.dtd">
<svg width="100%" height="100%" viewBox="0 0 606 606" version="1.1" xmlns="http://www.w3.org/2000/svg" xmlns:xlink="http://www.w3.org/1999/xlink" xml:space="preserve" xmlns:serif="http://www.serif.com/" style="fill-rule:evenodd;clip-rule:evenodd;stroke-linejoin:round;stroke-miterlimit:2;">
    <g transform="matrix(1,0,0,1,-48.0597,-40.5453)">
        <g transform="matrix(1,0,0,1,45.0311,-52.4833)">
            <path d="M388.112,297.411L262.702,436.742C256.889,443.393 247.545,447.702 238.712,447.803C229.886,448.164 220.329,444.352 214.175,438.014L154.935,378.773C146.335,370.77 142.746,355.935 146.736,344.885C153.72,322.865 165.999,301.334 182.278,283.441C198.556,265.549 218.833,251.293 240.097,242.265C261.296,233.085 285.6,228.226 309.781,228.773C333.963,229.32 358.022,235.273 378.785,245.401C387.68,249.46 394.937,258.86 396.613,268.493C398.708,278.043 395.549,289.491 388.852,296.615L388.112,297.411Z" style="fill-rule:nonzero;"/>
            <path d="M4.886,429.487C0.903,394.082 3.096,354.977 13.701,316.297C24.306,277.618 43.323,239.364 69.401,206.759C95.48,174.154 128.621,147.198 164.026,128.354C199.43,109.51 237.098,98.779 272.513,94.886C307.918,90.903 347.023,93.096 385.703,103.701C424.382,114.306 462.636,133.323 495.241,159.401C527.846,185.48 554.802,218.621 573.646,254.026C592.49,289.43 603.221,327.098 607.114,362.513C611.097,397.918 608.904,437.023 598.299,475.703C587.694,514.382 568.677,552.636 542.599,585.241C516.52,617.846 483.379,644.802 447.974,663.646C412.57,682.49 374.902,693.221 339.487,697.114C304.082,701.097 264.977,698.904 226.297,688.299C187.618,677.694 149.364,658.677 116.759,632.599C84.154,606.52 57.198,573.379 38.354,537.974C19.51,502.57 8.779,464.902 4.886,429.487ZM38.346,429.487C42.244,460.967 52.258,494.37 69.465,525.658C86.673,556.946 111.075,586.12 140.419,608.939C169.764,631.757 204.051,648.219 238.614,657.188C273.177,666.156 308.017,667.632 339.487,663.654C370.967,659.756 404.37,649.742 435.658,632.535C466.946,615.327 496.12,590.925 518.939,561.581C541.757,532.236 558.219,497.949 567.188,463.386C576.156,428.823 577.632,393.983 573.654,362.513C569.756,331.033 559.742,297.631 542.535,266.342C525.327,235.054 500.925,205.88 471.581,183.061C442.236,160.243 407.949,143.781 373.386,134.812C338.823,125.844 303.983,124.368 272.513,128.346C241.033,132.244 207.631,142.258 176.342,159.465C145.054,176.673 115.88,201.075 93.061,230.419C70.243,259.764 53.781,294.051 44.812,328.614C35.844,363.177 34.368,398.017 38.346,429.487Z" style="fill-rule:nonzero;"/>
            <path d="M372.95,161.804C400.501,169.642 428.92,183.203 454.456,202.891C479.992,222.579 502.645,248.394 518.942,277.739C535.24,307.084 545.18,339.959 548.396,372.043C551.613,404.127 548.104,435.419 540.196,462.95C532.358,490.501 518.797,518.92 499.109,544.456C479.421,569.992 453.606,592.645 424.261,608.942C394.916,625.24 362.041,635.18 329.957,638.396C297.873,641.613 266.581,638.104 239.05,630.196C211.499,622.358 183.08,608.797 157.544,589.109C132.008,569.42 109.355,543.606 93.058,514.261C76.76,484.916 66.82,452.041 63.603,419.957C60.387,387.873 63.896,356.581 71.804,329.05C79.642,301.499 93.203,273.08 112.891,247.544C132.579,222.008 158.394,199.355 187.739,183.058C217.084,166.761 249.959,156.82 282.043,153.604C314.127,150.387 345.419,153.896 372.95,161.804ZM339.49,195.265C315.889,191.296 289.58,191.335 263.249,197.031C236.917,202.727 210.563,214.081 187.739,230.378C164.915,246.675 145.622,267.916 131.686,290.972C117.75,314.028 109.173,338.899 105.265,362.51C101.296,386.111 101.335,412.42 107.031,438.751C112.727,465.083 124.081,491.437 140.378,514.261C156.675,537.085 177.916,556.379 200.972,570.314C224.028,584.25 248.899,592.827 272.51,596.736C296.111,600.704 322.42,600.665 348.751,594.969C375.083,589.273 401.437,577.919 424.261,561.622C447.085,545.325 466.378,524.084 480.314,501.028C494.25,477.972 502.827,453.101 506.736,429.49C510.704,405.889 510.665,379.58 504.969,353.249C499.273,326.917 487.919,300.563 471.622,277.739C455.325,254.915 434.084,235.622 411.028,221.686C387.972,207.75 363.101,199.173 339.49,195.265Z" style="fill-rule:nonzero;"/>
            <path d="M462.814,337.645C469.619,355.85 473.67,376.764 473.312,398.557C472.954,420.35 468.186,443.022 459.014,463.743C449.842,484.465 436.266,503.237 420.374,518.154C404.483,533.072 386.277,544.135 368.227,551.337C350.194,558.585 329.384,563.146 307.589,563.321C285.794,563.496 263.013,559.284 242.073,550.621C221.134,541.959 202.035,528.845 186.734,513.323C171.432,497.801 159.927,479.872 152.286,462.002C149.459,456.514 152.008,447.818 157.349,444.723C162.204,440.911 171.225,441.771 175.273,446.432L190.515,461.674C202.822,474.349 221.936,481.975 239.588,481.252C257.254,481.049 275.943,472.433 287.569,459.131L406.59,326.933C413.731,318.514 426.941,314.067 437.72,316.452C448.62,318.197 459.269,327.191 462.814,337.645Z" style="fill-rule:nonzero;"/>
            <path d="M190.515,461.674L162.634,433.793C159.801,431.107 157.734,426.535 157.734,421.963C157.734,417.391 159.801,412.819 162.634,410.133C165.32,407.3 169.892,405.233 174.464,405.233C179.036,405.233 183.608,407.3 186.294,410.133L214.175,438.014C220.329,444.352 229.886,448.164 238.712,447.803C247.545,447.702 256.889,443.393 262.702,436.742L367.875,319.927L370.005,317.765C375.811,312.758 386.651,313.594 391.502,318.688C397.074,322.979 399.04,333.671 394.669,339.969L287.569,459.131C275.943,472.433 257.254,481.049 239.588,481.252C221.936,481.975 202.822,474.349 190.515,461.674Z" style="fill:white;fill-rule:nonzero;"/>
        </g>
    </g>
</svg>
